<mxfile host="Electron" agent="Mozilla/5.0 (Macintosh; Intel Mac OS X 10_15_7) AppleWebKit/537.36 (KHTML, like Gecko) draw.io/27.0.9 Chrome/134.0.6998.205 Electron/35.4.0 Safari/537.36" version="27.0.9" pages="3">
  <diagram id="B7pKnhgP-cduGLh8Evfc" name="overview-diagram">
    <mxGraphModel dx="2066" dy="1219" grid="1" gridSize="10" guides="1" tooltips="1" connect="1" arrows="1" fold="1" page="1" pageScale="1" pageWidth="850" pageHeight="1100" math="0" shadow="0">
      <root>
        <mxCell id="0" />
        <mxCell id="1" parent="0" />
        <mxCell id="KlrRZow-v-VZXzuuszIt-1" style="rounded=0;orthogonalLoop=1;jettySize=auto;html=1;exitX=0.5;exitY=0;exitDx=0;exitDy=0;entryX=0.5;entryY=1;entryDx=0;entryDy=0;strokeWidth=2;fontSize=14;startArrow=classic;startFill=1;" edge="1" parent="1" source="KlrRZow-v-VZXzuuszIt-14" target="KlrRZow-v-VZXzuuszIt-8">
          <mxGeometry relative="1" as="geometry">
            <mxPoint x="397" y="600" as="sourcePoint" />
            <mxPoint x="445" y="640" as="targetPoint" />
          </mxGeometry>
        </mxCell>
        <mxCell id="KlrRZow-v-VZXzuuszIt-2" value="To get IP" style="edgeLabel;html=1;align=center;verticalAlign=middle;resizable=0;points=[];fontSize=13;" connectable="0" vertex="1" parent="KlrRZow-v-VZXzuuszIt-1">
          <mxGeometry x="0.31" relative="1" as="geometry">
            <mxPoint as="offset" />
          </mxGeometry>
        </mxCell>
        <mxCell id="KlrRZow-v-VZXzuuszIt-3" value="&lt;font style=&quot;font-size: 18px;&quot;&gt;Distributed File network&lt;/font&gt;" style="swimlane;whiteSpace=wrap;html=1;fontSize=14;strokeWidth=2;dashed=1;dashPattern=1 4;" vertex="1" parent="1">
          <mxGeometry x="81.25" y="150" width="630" height="390" as="geometry" />
        </mxCell>
        <mxCell id="KlrRZow-v-VZXzuuszIt-4" style="rounded=0;orthogonalLoop=1;jettySize=auto;html=1;exitX=1;exitY=0.5;exitDx=0;exitDy=0;entryX=0;entryY=0.5;entryDx=0;entryDy=0;dashed=1;strokeWidth=2;startArrow=classic;startFill=1;" edge="1" parent="KlrRZow-v-VZXzuuszIt-3" source="KlrRZow-v-VZXzuuszIt-5" target="KlrRZow-v-VZXzuuszIt-6">
          <mxGeometry relative="1" as="geometry" />
        </mxCell>
        <mxCell id="KlrRZow-v-VZXzuuszIt-5" value="Master Node 1" style="ellipse;whiteSpace=wrap;html=1;fontSize=14;strokeWidth=2;fillColor=#ffe6cc;strokeColor=#d79b00;" vertex="1" parent="KlrRZow-v-VZXzuuszIt-3">
          <mxGeometry x="70" y="230" width="120" height="80" as="geometry" />
        </mxCell>
        <mxCell id="KlrRZow-v-VZXzuuszIt-6" value="Data Node 4" style="ellipse;whiteSpace=wrap;html=1;fontSize=14;strokeWidth=2;fillColor=#fff2cc;strokeColor=#d6b656;" vertex="1" parent="KlrRZow-v-VZXzuuszIt-3">
          <mxGeometry x="480" y="200" width="120" height="80" as="geometry" />
        </mxCell>
        <mxCell id="KlrRZow-v-VZXzuuszIt-7" value="Data Node 1" style="ellipse;whiteSpace=wrap;html=1;fontSize=14;strokeWidth=2;fillColor=#fff2cc;strokeColor=#d6b656;" vertex="1" parent="KlrRZow-v-VZXzuuszIt-3">
          <mxGeometry x="70" y="40" width="120" height="80" as="geometry" />
        </mxCell>
        <mxCell id="KlrRZow-v-VZXzuuszIt-8" value="DNS" style="shape=hexagon;perimeter=hexagonPerimeter2;whiteSpace=wrap;html=1;fixedSize=1;strokeWidth=2;fontSize=14;fillColor=#e1d5e7;strokeColor=#9673a6;" vertex="1" parent="KlrRZow-v-VZXzuuszIt-3">
          <mxGeometry x="238.75" y="300" width="152.5" height="90" as="geometry" />
        </mxCell>
        <mxCell id="KlrRZow-v-VZXzuuszIt-9" value="Master Node 2&lt;div&gt;(backup)&lt;/div&gt;" style="ellipse;whiteSpace=wrap;html=1;fontSize=14;strokeWidth=2;fillColor=#ffe6cc;strokeColor=#d79b00;" vertex="1" parent="KlrRZow-v-VZXzuuszIt-3">
          <mxGeometry x="430" y="50" width="120" height="80" as="geometry" />
        </mxCell>
        <mxCell id="KlrRZow-v-VZXzuuszIt-10" style="rounded=0;orthogonalLoop=1;jettySize=auto;html=1;exitX=0.5;exitY=0;exitDx=0;exitDy=0;entryX=0.5;entryY=1;entryDx=0;entryDy=0;startArrow=classic;startFill=1;dashed=1;strokeWidth=2;" edge="1" parent="KlrRZow-v-VZXzuuszIt-3" source="KlrRZow-v-VZXzuuszIt-5" target="KlrRZow-v-VZXzuuszIt-7">
          <mxGeometry relative="1" as="geometry">
            <mxPoint x="346" y="320" as="sourcePoint" />
            <mxPoint x="232" y="148" as="targetPoint" />
          </mxGeometry>
        </mxCell>
        <mxCell id="KlrRZow-v-VZXzuuszIt-11" style="rounded=0;orthogonalLoop=1;jettySize=auto;html=1;exitX=0;exitY=0.5;exitDx=0;exitDy=0;entryX=1;entryY=0.5;entryDx=0;entryDy=0;startArrow=classic;startFill=1;dashed=1;strokeWidth=2;" edge="1" parent="KlrRZow-v-VZXzuuszIt-3" source="KlrRZow-v-VZXzuuszIt-9" target="KlrRZow-v-VZXzuuszIt-7">
          <mxGeometry relative="1" as="geometry">
            <mxPoint x="140" y="240" as="sourcePoint" />
            <mxPoint x="140" y="130" as="targetPoint" />
          </mxGeometry>
        </mxCell>
        <mxCell id="KlrRZow-v-VZXzuuszIt-12" style="rounded=0;orthogonalLoop=1;jettySize=auto;html=1;exitX=0.5;exitY=0;exitDx=0;exitDy=0;entryX=0.5;entryY=1;entryDx=0;entryDy=0;startArrow=classic;startFill=1;dashed=1;strokeWidth=2;" edge="1" parent="KlrRZow-v-VZXzuuszIt-3" source="KlrRZow-v-VZXzuuszIt-6" target="KlrRZow-v-VZXzuuszIt-9">
          <mxGeometry relative="1" as="geometry">
            <mxPoint x="150" y="250" as="sourcePoint" />
            <mxPoint x="150" y="140" as="targetPoint" />
          </mxGeometry>
        </mxCell>
        <mxCell id="KlrRZow-v-VZXzuuszIt-13" style="rounded=0;orthogonalLoop=1;jettySize=auto;html=1;exitX=1;exitY=0;exitDx=0;exitDy=0;entryX=0;entryY=1;entryDx=0;entryDy=0;startArrow=classic;startFill=1;dashed=1;strokeWidth=2;" edge="1" parent="KlrRZow-v-VZXzuuszIt-3" source="KlrRZow-v-VZXzuuszIt-5" target="KlrRZow-v-VZXzuuszIt-9">
          <mxGeometry relative="1" as="geometry">
            <mxPoint x="160" y="260" as="sourcePoint" />
            <mxPoint x="160" y="150" as="targetPoint" />
          </mxGeometry>
        </mxCell>
        <mxCell id="KlrRZow-v-VZXzuuszIt-14" value="" style="shape=actor;whiteSpace=wrap;html=1;fontSize=14;strokeWidth=2;" vertex="1" parent="1">
          <mxGeometry x="361.25" y="640" width="70" height="110" as="geometry" />
        </mxCell>
        <mxCell id="KlrRZow-v-VZXzuuszIt-15" value="User" style="text;html=1;align=center;verticalAlign=middle;whiteSpace=wrap;rounded=0;fontSize=14;strokeWidth=2;" vertex="1" parent="1">
          <mxGeometry x="366.25" y="770" width="60" height="30" as="geometry" />
        </mxCell>
        <mxCell id="KlrRZow-v-VZXzuuszIt-16" style="rounded=0;orthogonalLoop=1;jettySize=auto;html=1;exitX=0;exitY=1;exitDx=0;exitDy=0;entryX=0.5;entryY=0;entryDx=0;entryDy=0;startArrow=classic;startFill=1;strokeWidth=2;" edge="1" parent="1" source="KlrRZow-v-VZXzuuszIt-6" target="KlrRZow-v-VZXzuuszIt-14">
          <mxGeometry relative="1" as="geometry" />
        </mxCell>
        <mxCell id="KlrRZow-v-VZXzuuszIt-17" value="To read/write file" style="edgeLabel;html=1;align=center;verticalAlign=middle;resizable=0;points=[];fontSize=13;" connectable="0" vertex="1" parent="KlrRZow-v-VZXzuuszIt-16">
          <mxGeometry x="0.0029" y="-1" relative="1" as="geometry">
            <mxPoint x="21" y="-20" as="offset" />
          </mxGeometry>
        </mxCell>
        <mxCell id="KlrRZow-v-VZXzuuszIt-18" style="rounded=0;orthogonalLoop=1;jettySize=auto;html=1;exitX=0.5;exitY=0;exitDx=0;exitDy=0;entryX=0.5;entryY=1;entryDx=0;entryDy=0;strokeWidth=2;fontSize=14;startArrow=classic;startFill=1;" edge="1" parent="1" source="KlrRZow-v-VZXzuuszIt-14" target="KlrRZow-v-VZXzuuszIt-5">
          <mxGeometry relative="1" as="geometry">
            <mxPoint x="406" y="660" as="sourcePoint" />
            <mxPoint x="406" y="550" as="targetPoint" />
          </mxGeometry>
        </mxCell>
        <mxCell id="KlrRZow-v-VZXzuuszIt-19" value="To get metadata" style="edgeLabel;html=1;align=center;verticalAlign=middle;resizable=0;points=[];fontSize=13;" connectable="0" vertex="1" parent="KlrRZow-v-VZXzuuszIt-18">
          <mxGeometry x="0.31" relative="1" as="geometry">
            <mxPoint as="offset" />
          </mxGeometry>
        </mxCell>
      </root>
    </mxGraphModel>
  </diagram>
  <diagram id="kVmLFlOqIVdr84iXKPPV" name="components">
    <mxGraphModel dx="2066" dy="1219" grid="1" gridSize="10" guides="1" tooltips="1" connect="1" arrows="1" fold="1" page="1" pageScale="1" pageWidth="1169" pageHeight="827" math="0" shadow="0">
      <root>
        <mxCell id="0" />
        <mxCell id="1" parent="0" />
        <mxCell id="fplodzAgP4jeERaur0y1-1" value="&lt;font style=&quot;font-size: 18px;&quot;&gt;Node&lt;/font&gt;" style="swimlane;whiteSpace=wrap;html=1;strokeWidth=3;fontSize=14;startSize=30;" parent="1" vertex="1">
          <mxGeometry x="320" y="60" width="470" height="280" as="geometry" />
        </mxCell>
        <mxCell id="fplodzAgP4jeERaur0y1-2" value="Thread:Receiver" style="rounded=1;whiteSpace=wrap;html=1;strokeWidth=3;fontSize=14;" parent="fplodzAgP4jeERaur0y1-1" vertex="1">
          <mxGeometry x="32.5" y="80" width="135" height="60" as="geometry" />
        </mxCell>
        <mxCell id="fplodzAgP4jeERaur0y1-3" value="Thread:Processor" style="rounded=1;whiteSpace=wrap;html=1;strokeWidth=3;fontSize=14;" parent="fplodzAgP4jeERaur0y1-1" vertex="1">
          <mxGeometry x="167.5" y="200" width="135" height="60" as="geometry" />
        </mxCell>
        <mxCell id="fplodzAgP4jeERaur0y1-4" value="Thread:Sender" style="rounded=1;whiteSpace=wrap;html=1;strokeWidth=3;fontSize=14;" parent="fplodzAgP4jeERaur0y1-1" vertex="1">
          <mxGeometry x="302.5" y="80" width="135" height="60" as="geometry" />
        </mxCell>
        <mxCell id="7OpQaIbxCUvOfZ9HxVfu-5" style="edgeStyle=orthogonalEdgeStyle;rounded=0;orthogonalLoop=1;jettySize=auto;html=1;exitX=0.5;exitY=0;exitDx=0;exitDy=0;entryX=0;entryY=0.5;entryDx=0;entryDy=0;endArrow=block;endFill=0;strokeWidth=3;" edge="1" parent="1" source="7OpQaIbxCUvOfZ9HxVfu-1" target="fplodzAgP4jeERaur0y1-1">
          <mxGeometry relative="1" as="geometry" />
        </mxCell>
        <mxCell id="7OpQaIbxCUvOfZ9HxVfu-1" value="&lt;font style=&quot;font-size: 18px;&quot;&gt;DNS&lt;/font&gt;" style="swimlane;whiteSpace=wrap;html=1;strokeWidth=3;fontSize=14;startSize=30;" vertex="1" parent="1">
          <mxGeometry x="60" y="430" width="180" height="130" as="geometry" />
        </mxCell>
        <mxCell id="7OpQaIbxCUvOfZ9HxVfu-7" style="edgeStyle=orthogonalEdgeStyle;rounded=0;orthogonalLoop=1;jettySize=auto;html=1;exitX=0.5;exitY=0;exitDx=0;exitDy=0;entryX=0.25;entryY=1;entryDx=0;entryDy=0;strokeWidth=3;" edge="1" parent="1" source="7OpQaIbxCUvOfZ9HxVfu-6" target="fplodzAgP4jeERaur0y1-1">
          <mxGeometry relative="1" as="geometry" />
        </mxCell>
        <mxCell id="7OpQaIbxCUvOfZ9HxVfu-6" value="&lt;font style=&quot;font-size: 18px;&quot;&gt;Master&lt;/font&gt;" style="swimlane;whiteSpace=wrap;html=1;strokeWidth=3;fontSize=14;startSize=30;" vertex="1" parent="1">
          <mxGeometry x="340" y="430" width="180" height="130" as="geometry" />
        </mxCell>
        <mxCell id="7OpQaIbxCUvOfZ9HxVfu-9" style="edgeStyle=orthogonalEdgeStyle;rounded=0;orthogonalLoop=1;jettySize=auto;html=1;exitX=0.5;exitY=0;exitDx=0;exitDy=0;entryX=0.75;entryY=1;entryDx=0;entryDy=0;strokeWidth=3;" edge="1" parent="1" source="7OpQaIbxCUvOfZ9HxVfu-8" target="fplodzAgP4jeERaur0y1-1">
          <mxGeometry relative="1" as="geometry" />
        </mxCell>
        <mxCell id="7OpQaIbxCUvOfZ9HxVfu-8" value="&lt;font style=&quot;font-size: 18px;&quot;&gt;Master&lt;/font&gt;" style="swimlane;whiteSpace=wrap;html=1;strokeWidth=3;fontSize=14;startSize=30;" vertex="1" parent="1">
          <mxGeometry x="600" y="430" width="180" height="130" as="geometry" />
        </mxCell>
        <mxCell id="7OpQaIbxCUvOfZ9HxVfu-11" style="edgeStyle=orthogonalEdgeStyle;rounded=0;orthogonalLoop=1;jettySize=auto;html=1;exitX=0.5;exitY=0;exitDx=0;exitDy=0;entryX=1;entryY=0.5;entryDx=0;entryDy=0;strokeWidth=3;" edge="1" parent="1" source="7OpQaIbxCUvOfZ9HxVfu-10" target="fplodzAgP4jeERaur0y1-1">
          <mxGeometry relative="1" as="geometry" />
        </mxCell>
        <mxCell id="7OpQaIbxCUvOfZ9HxVfu-10" value="&lt;font style=&quot;font-size: 18px;&quot;&gt;Client&lt;/font&gt;" style="swimlane;whiteSpace=wrap;html=1;strokeWidth=3;fontSize=14;startSize=30;" vertex="1" parent="1">
          <mxGeometry x="880" y="430" width="180" height="130" as="geometry" />
        </mxCell>
      </root>
    </mxGraphModel>
  </diagram>
  <diagram id="e0zPwfYO4tUEodr3xDdO" name="Page-3">
    <mxGraphModel dx="2066" dy="1219" grid="1" gridSize="10" guides="1" tooltips="1" connect="1" arrows="1" fold="1" page="1" pageScale="1" pageWidth="1169" pageHeight="827" math="0" shadow="0">
      <root>
        <mxCell id="0" />
        <mxCell id="1" parent="0" />
      </root>
    </mxGraphModel>
  </diagram>
</mxfile>
